<svg xmlns="http://www.w3.org/2000/svg" viewBox="0 0 1139.87 653.75"><defs><style>.cls-1,.cls-3,.cls-4{fill:#3e3d4d;}.cls-2{fill:#e2dbcf;}.cls-3{stroke:#e2dbcf;}.cls-3,.cls-4{stroke-miterlimit:10;}.cls-4{stroke:#020202;}</style></defs><title>Mesa de trabajo 4</title><g id="Capa_1" data-name="Capa 1"><rect class="cls-1" y="0.97" width="1139.87" height="653.75"/><path class="cls-2" d="M304,568.51H282.55v17.64H306l-.48,3H279.31v-42h25.74v3h-22.5v15.36H304Z"/><path class="cls-2" d="M369.19,589.15v-42H374c6.54,10.08,21.9,33.54,24.54,38.1h.06c-.36-6.06-.3-12.24-.3-19.08v-19h3.3v42h-4.44c-6.24-9.72-21.84-34.14-24.84-38.76h-.06c.3,5.52.24,11.64.24,19.26v19.5Z"/><path class="cls-2" d="M468.55,577.87c1.26,5.58,5,8.88,11.88,8.88,7.67,0,10.61-3.84,10.61-8.4,0-4.74-2.1-7.68-11.34-10-8.87-2.22-12.71-5.1-12.71-11.16,0-5.52,4-10.68,13-10.68,9.23,0,13.13,5.64,13.67,10.74h-3.36c-1-4.5-3.9-7.74-10.5-7.74-6.05,0-9.35,2.82-9.35,7.5s2.76,6.42,10.5,8.34c11.81,2.94,13.55,7.68,13.55,12.72,0,6.18-4.5,11.52-14.21,11.52-10.5,0-14.34-6.12-15.12-11.76Z"/><path class="cls-2" d="M583,568.51H561.6v17.64h23.46l-.48,3H558.36v-42H584.1v3H561.6v15.36H583Z"/><path class="cls-2" d="M651.54,569.53v19.62h-3.3v-42H663.3c8.28,0,12.66,4.44,12.66,11A9.51,9.51,0,0,1,668.1,568c4.32,1,7.2,3.84,7.2,11v1.62c0,2.94-.24,6.9.54,8.52h-3.3c-.78-1.8-.6-5.16-.6-8.76v-1.08c0-6.9-2-9.78-10.08-9.78Zm0-3h10.14c7.38,0,10.8-2.76,10.8-8.28,0-5.16-3.36-8.1-9.9-8.1h-11Z"/><path class="cls-2" d="M765.48,568.51H744.06v17.64h23.46l-.48,3H740.82v-42h25.74v3h-22.5v15.36h21.42Z"/><path class="cls-2" d="M831,577.87c1.26,5.58,5,8.88,11.88,8.88,7.68,0,10.62-3.84,10.62-8.4,0-4.74-2.1-7.68-11.34-10-8.88-2.22-12.72-5.1-12.72-11.16,0-5.52,4-10.68,13-10.68,9.24,0,13.14,5.64,13.68,10.74h-3.36c-1-4.5-3.9-7.74-10.5-7.74-6.06,0-9.36,2.82-9.36,7.5s2.76,6.42,10.5,8.34c11.82,2.94,13.56,7.68,13.56,12.72,0,6.18-4.5,11.52-14.22,11.52-10.5,0-14.34-6.12-15.12-11.76Z"/></g><g id="Capa_3" data-name="Capa 3"><polygon class="cls-2" points="307.49 178.16 394.49 226.81 394.49 327.85 481.49 376.81 481.49 476.95 307.49 376.81 307.49 178.16"/><polygon class="cls-3" points="480.99 178.16 393.99 226.81 393.99 327.85 480.99 275.95 480.99 178.16"/><polygon class="cls-3" points="481.49 275.95 567.49 327.85 481.49 376.81 394.49 327.85 481.49 275.95"/><polygon class="cls-4" points="481.49 376.82 567.49 327.85 567.49 425.8 481.49 476.95 481.49 376.82"/><polygon class="cls-4" points="307.49 178.16 394.49 125.81 481.49 178.16 394.49 226.81 307.49 178.16"/><polygon class="cls-2" points="828.43 380.03 741.43 331.38 741.43 230.34 654.43 181.38 654.43 81.24 828.43 181.38 828.43 380.03"/><polygon class="cls-3" points="654.93 380.03 741.93 331.38 741.93 230.34 654.93 282.25 654.93 380.03"/><polygon class="cls-3" points="654.43 282.25 568.43 230.34 654.43 181.38 741.43 230.34 654.43 282.25"/><polygon class="cls-4" points="654.43 181.37 568.43 230.34 568.43 132.4 654.43 81.24 654.43 181.37"/><polygon class="cls-4" points="828.43 380.03 741.43 432.38 654.43 380.03 741.43 331.38 828.43 380.03"/></g></svg>